<svg xmlns="http://www.w3.org/2000/svg" width="218" height="274" fill="none"><g clip-path="url(#F)"><g clip-path="url(#G)"><rect x="1.89" y="35.923" width="174" height="240" rx="26" transform="rotate(352 1.89 35.923)" fill="url(#A)"/><rect x="14.919" y="28.033" width="166" height="232" rx="22" transform="rotate(352 14.919 28.033)" fill="#fff" stroke="url(#B)" stroke-width="8"/><rect x="61.772" y="196.148" width="119" height="34" rx="8" transform="rotate(352 61.772 196.148)" stroke="url(#C)" stroke-width="4"/><path d="M76.857 217.255l-1.67-11.884 8.078-1.135.278 1.981 1.616-.228.278 1.981-1.616.227.278 1.981 1.616-.227.557 3.961-1.616.227.278 1.98-8.079 1.136zm6.184-2.889l-.557-3.961-3.231.454.557 3.961 3.231-.454zm-.835-5.942l-.278-1.98-3.231.454.278 1.98 3.231-.454z" fill="url(#D)"/><path d="M93.337 214.938l-.278-1.98 1.616-.227-1.113-7.922-1.616.227-.278-1.981 6.463-.908.278 1.98-1.616.228 1.113 7.922 1.616-.227.278 1.98-6.463.908z" fill="url(#D)"/><path d="M109.817 212.622l-1.392-9.902-3.231.454-.279-1.981 9.694-1.362.279 1.98-3.232.454 1.392 9.903-3.231.454z" fill="url(#D)"/><path d="M132.76 209.398l-.835-5.942-1.616.227.278 1.981-3.231.454-.278-1.981-1.616.228.835 5.941-3.232.454-1.67-11.883 3.232-.454.278 1.98 1.616-.227.278 1.981 3.232-.454-.279-1.981 1.616-.227-.278-1.98 3.231-.454 1.67 11.883-3.231.454z" fill="url(#D)"/><path d="M149.24 207.082l-.557-3.961-3.231.454.556 3.961-3.231.454-1.392-9.903 1.616-.227-.278-1.98 6.462-.909.279 1.981 1.616-.227 1.391 9.903-3.231.454zm-.835-5.942l-.557-3.961-3.231.454.556 3.961 3.232-.454z" fill="url(#D)"/><path d="M159.257 205.674l-1.67-11.883 8.079-1.136.278 1.981 1.616-.227.556 3.961-1.615.227.278 1.98-4.847.682.557 3.961-3.232.454zm5.628-6.85l-.557-3.961-3.231.454.557 3.961 3.231-.454z" fill="url(#D)"/><use href="#H" fill="url(#E)"/><use href="#I" fill="url(#E)"/><use href="#J" fill="url(#E)"/><use href="#K" fill="url(#E)"/><use href="#L" fill="url(#E)"/><path d="M88.234 50.044l-5.332.749a1.62 1.62 0 0 0-1.373 1.834l.754 5.364a1.62 1.62 0 0 0 1.826 1.384l5.332-.749a1.62 1.62 0 0 0 1.373-1.834l-.754-5.364a1.62 1.62 0 0 0-1.826-1.384z" fill="url(#E)"/><path d="M98.899 48.545l-5.332.749a1.62 1.62 0 0 0-1.373 1.834l.754 5.364a1.62 1.62 0 0 0 1.826 1.384l5.332-.749c.883-.124 1.498-.945 1.374-1.834l-.754-5.364a1.62 1.62 0 0 0-1.826-1.384z" fill="url(#E)"/><use href="#M" fill="url(#E)"/><path d="M80.585 72.998l-5.332.749a1.62 1.62 0 0 0-1.374 1.834l.754 5.364a1.62 1.62 0 0 0 1.826 1.384l5.332-.749a1.62 1.62 0 0 0 1.373-1.834l-.754-5.364a1.62 1.62 0 0 0-1.826-1.384z" fill="url(#E)"/><path d="M82.093 83.726l-5.332.749a1.62 1.62 0 0 0-1.374 1.834l.754 5.364a1.62 1.62 0 0 0 1.826 1.384l5.332-.749a1.62 1.62 0 0 0 1.373-1.834l-.754-5.364a1.62 1.62 0 0 0-1.826-1.384z" fill="url(#E)"/><use href="#N" fill="url(#E)"/><path d="M106.437 102.184l-5.332.75a1.62 1.62 0 0 0-1.373 1.834l.754 5.364a1.62 1.62 0 0 0 1.825 1.384l5.333-.749a1.62 1.62 0 0 0 1.373-1.834l-.754-5.364a1.62 1.62 0 0 0-1.826-1.385z" fill="url(#E)"/><use href="#O" fill="url(#E)"/><use href="#P" fill="url(#E)"/><path d="M132.4 54.777l-5.332.749a1.62 1.62 0 0 0-1.374 1.834l.754 5.364a1.62 1.62 0 0 0 1.826 1.384l5.332-.749a1.62 1.62 0 0 0 1.373-1.834l-.753-5.364a1.62 1.62 0 0 0-1.826-1.384z" fill="url(#E)"/><path d="M120.228 45.547l-5.333.749a1.62 1.62 0 0 0-1.373 1.834l.754 5.364a1.62 1.62 0 0 0 1.826 1.384l5.332-.749a1.62 1.62 0 0 0 1.373-1.834l-.754-5.364a1.62 1.62 0 0 0-1.825-1.384z" fill="url(#E)"/><use href="#Q" fill="url(#E)"/><path d="M138.431 97.688l-5.333.749a1.62 1.62 0 0 0-1.373 1.835l.754 5.363a1.62 1.62 0 0 0 1.826 1.385l5.332-.75a1.62 1.62 0 0 0 1.373-1.834l-.754-5.364a1.62 1.62 0 0 0-1.825-1.384z" fill="url(#E)"/><path d="M127.766 99.187l-5.332.749a1.62 1.62 0 0 0-1.373 1.834l.753 5.364a1.62 1.62 0 0 0 1.826 1.385l5.332-.75a1.62 1.62 0 0 0 1.374-1.834l-.754-5.364a1.62 1.62 0 0 0-1.826-1.384z" fill="url(#E)"/><path d="M135.415 76.232l-5.332.749a1.62 1.62 0 0 0-1.373 1.834l.753 5.364a1.62 1.62 0 0 0 1.826 1.384l5.332-.749a1.62 1.62 0 0 0 1.374-1.834l-.754-5.364a1.62 1.62 0 0 0-1.826-1.384z" fill="url(#E)"/><path d="M136.923 86.96l-5.332.749a1.62 1.62 0 0 0-1.374 1.834l.754 5.364a1.62 1.62 0 0 0 1.826 1.384l5.332-.749a1.62 1.62 0 0 0 1.374-1.834l-.754-5.364a1.62 1.62 0 0 0-1.826-1.384z" fill="url(#E)"/><path d="M147.587 85.461l-5.332.749a1.62 1.62 0 0 0-1.373 1.834l.754 5.364a1.62 1.62 0 0 0 1.825 1.384l5.333-.749a1.62 1.62 0 0 0 1.373-1.834l-.754-5.364a1.62 1.62 0 0 0-1.826-1.384z" fill="url(#E)"/><path d="M146.08 74.734l-5.333.749a1.62 1.62 0 0 0-1.373 1.834l.754 5.364a1.62 1.62 0 0 0 1.826 1.384l5.332-.749a1.62 1.62 0 0 0 1.373-1.834l-.754-5.364a1.62 1.62 0 0 0-1.825-1.384z" fill="url(#E)"/><path d="M144.572 64.006l-5.332.749a1.62 1.62 0 0 0-1.374 1.834l.754 5.364a1.62 1.62 0 0 0 1.826 1.384l5.332-.749a1.62 1.62 0 0 0 1.374-1.834l-.754-5.364a1.62 1.62 0 0 0-1.826-1.384z" fill="url(#E)"/><path d="M83.601 94.454l-5.332.749a1.62 1.62 0 0 0-1.374 1.834l.754 5.364a1.62 1.62 0 0 0 1.826 1.384l5.332-.75a1.62 1.62 0 0 0 1.373-1.834l-.754-5.364a1.62 1.62 0 0 0-1.826-1.384z" fill="url(#E)"/><use href="#R" fill="url(#E)"/><path d="M86.616 115.91l-5.332.749a1.62 1.62 0 0 0-1.374 1.834l.754 5.364a1.62 1.62 0 0 0 1.826 1.385l5.332-.75a1.62 1.62 0 0 0 1.373-1.834l-.754-5.364a1.62 1.62 0 0 0-1.826-1.384z" fill="url(#E)"/><use href="#S" fill="url(#E)"/><path d="M118.61 111.414l-5.333.749a1.62 1.62 0 0 0-1.373 1.834l.754 5.364a1.62 1.62 0 0 0 1.825 1.384l5.333-.749a1.62 1.62 0 0 0 1.373-1.834l-.754-5.364a1.62 1.62 0 0 0-1.825-1.384z" fill="url(#E)"/><path d="M130.782 120.643l-5.333.749a1.62 1.62 0 0 0-1.373 1.834l.754 5.364a1.62 1.62 0 0 0 1.826 1.384l5.332-.749a1.62 1.62 0 0 0 1.373-1.834l-.754-5.364a1.62 1.62 0 0 0-1.825-1.384z" fill="url(#E)"/><path d="M141.446 119.144l-5.332.749a1.62 1.62 0 0 0-1.374 1.834l.754 5.364a1.62 1.62 0 0 0 1.826 1.385l5.332-.75a1.62 1.62 0 0 0 1.374-1.834l-.754-5.364a1.62 1.62 0 0 0-1.826-1.384z" fill="url(#E)"/><path d="M132.289 131.371l-5.332.749a1.62 1.62 0 0 0-1.373 1.834l.753 5.364a1.62 1.62 0 0 0 1.826 1.384l5.333-.749a1.62 1.62 0 0 0 1.373-1.834l-.754-5.364a1.62 1.62 0 0 0-1.826-1.384z" fill="url(#E)"/><path d="M142.954 129.872l-5.332.749a1.62 1.62 0 0 0-1.374 1.834l.754 5.364a1.62 1.62 0 0 0 1.826 1.385l5.332-.75a1.62 1.62 0 0 0 1.373-1.834l-.753-5.364a1.62 1.62 0 0 0-1.826-1.384z" fill="url(#E)"/><path d="M144.461 140.6l-5.332.749a1.62 1.62 0 0 0-1.373 1.834l.754 5.364a1.62 1.62 0 0 0 1.825 1.384l5.333-.749a1.62 1.62 0 0 0 1.373-1.834l-.754-5.364a1.62 1.62 0 0 0-1.826-1.384z" fill="url(#E)"/><path d="M155.126 139.101l-5.332.749a1.62 1.62 0 0 0-1.374 1.834l.754 5.364a1.62 1.62 0 0 0 1.826 1.385l5.332-.75a1.62 1.62 0 0 0 1.374-1.834l-.754-5.364a1.62 1.62 0 0 0-1.826-1.384z" fill="url(#E)"/><use href="#T" fill="url(#E)"/><path d="M156.634 149.829l-5.333.749a1.62 1.62 0 0 0-1.373 1.834l.754 5.364a1.62 1.62 0 0 0 1.826 1.385l5.332-.75a1.62 1.62 0 0 0 1.373-1.834l-.754-5.364a1.62 1.62 0 0 0-1.825-1.384z" fill="url(#E)"/><path d="M120.117 122.142l-5.332.749c-.883.124-1.498.945-1.374 1.834l.754 5.364a1.62 1.62 0 0 0 1.826 1.384l5.332-.749a1.62 1.62 0 0 0 1.374-1.834l-.754-5.364a1.62 1.62 0 0 0-1.826-1.384z" fill="url(#E)"/><path d="M107.945 112.912l-5.332.75a1.62 1.62 0 0 0-1.374 1.834l.754 5.364a1.62 1.62 0 0 0 1.826 1.384l5.332-.749a1.62 1.62 0 0 0 1.374-1.834l-.754-5.364a1.62 1.62 0 0 0-1.826-1.385z" fill="url(#E)"/><path d="M97.281 114.411l-5.332.75a1.62 1.62 0 0 0-1.374 1.834l.754 5.364a1.62 1.62 0 0 0 1.826 1.384l5.332-.749a1.62 1.62 0 0 0 1.373-1.834l-.754-5.364a1.62 1.62 0 0 0-1.826-1.385z" fill="url(#E)"/><path d="M77.46 128.137l-5.332.749a1.62 1.62 0 0 0-1.374 1.834l.754 5.364a1.62 1.62 0 0 0 1.826 1.384l5.332-.749a1.62 1.62 0 0 0 1.373-1.834l-.754-5.364a1.62 1.62 0 0 0-1.826-1.384z" fill="url(#E)"/><path d="M88.124 126.638l-5.332.749a1.62 1.62 0 0 0-1.374 1.834l.754 5.364a1.62 1.62 0 0 0 1.826 1.385l5.332-.75a1.62 1.62 0 0 0 1.373-1.834l-.754-5.364a1.62 1.62 0 0 0-1.826-1.384z" fill="url(#E)"/><path d="M78.967 138.865l-5.332.749a1.62 1.62 0 0 0-1.374 1.834l.754 5.364a1.62 1.62 0 0 0 1.826 1.384l5.332-.749a1.62 1.62 0 0 0 1.373-1.834l-.754-5.364a1.62 1.62 0 0 0-1.826-1.384z" fill="url(#E)"/><path d="M89.632 137.366l-5.332.749a1.62 1.62 0 0 0-1.374 1.834l.754 5.364a1.62 1.62 0 0 0 1.826 1.385l5.332-.75a1.62 1.62 0 0 0 1.373-1.834l-.754-5.364a1.62 1.62 0 0 0-1.826-1.384z" fill="url(#E)"/><path d="M80.475 149.592l-5.332.75a1.62 1.62 0 0 0-1.374 1.834l.754 5.364a1.62 1.62 0 0 0 1.826 1.384l5.332-.749a1.62 1.62 0 0 0 1.373-1.834l-.754-5.364a1.62 1.62 0 0 0-1.826-1.385z" fill="url(#E)"/><path d="M91.139 148.094l-5.332.749a1.62 1.62 0 0 0-1.374 1.834l.754 5.364a1.62 1.62 0 0 0 1.826 1.384l5.332-.749a1.62 1.62 0 0 0 1.373-1.834l-.754-5.364a1.62 1.62 0 0 0-1.826-1.384z" fill="url(#E)"/><path d="M81.983 160.32l-5.332.75a1.62 1.62 0 0 0-1.374 1.834l.754 5.364a1.62 1.62 0 0 0 1.826 1.384l5.332-.749a1.62 1.62 0 0 0 1.373-1.834l-.754-5.364a1.62 1.62 0 0 0-1.826-1.385z" fill="url(#E)"/><path d="M71.429 85.225l-5.332.749a1.62 1.62 0 0 0-1.374 1.834l.754 5.364a1.62 1.62 0 0 0 1.826 1.384l5.332-.749a1.62 1.62 0 0 0 1.374-1.834l-.754-5.364a1.62 1.62 0 0 0-1.826-1.384z" fill="url(#E)"/><path d="M72.936 95.953l-5.332.749a1.62 1.62 0 0 0-1.374 1.834l.754 5.364a1.62 1.62 0 0 0 1.826 1.385l5.332-.75a1.62 1.62 0 0 0 1.373-1.834l-.754-5.364a1.62 1.62 0 0 0-1.826-1.384z" fill="url(#E)"/><path d="M68.413 63.769l-5.332.749a1.62 1.62 0 0 0-1.374 1.834l.754 5.364a1.62 1.62 0 0 0 1.826 1.384l5.332-.749a1.62 1.62 0 0 0 1.374-1.834l-.754-5.364a1.62 1.62 0 0 0-1.826-1.384z" fill="url(#E)"/><path d="M66.906 53.041l-5.332.749a1.62 1.62 0 0 0-1.373 1.834l.754 5.364a1.62 1.62 0 0 0 1.826 1.384l5.332-.749a1.62 1.62 0 0 0 1.374-1.834l-.754-5.364a1.62 1.62 0 0 0-1.826-1.384z" fill="url(#E)"/><path d="M69.921 74.497l-5.332.749a1.62 1.62 0 0 0-1.374 1.834l.754 5.364a1.62 1.62 0 0 0 1.826 1.384l5.332-.749a1.62 1.62 0 0 0 1.374-1.834l-.754-5.364a1.62 1.62 0 0 0-1.826-1.384z" fill="url(#E)"/><path d="M74.444 106.681l-5.332.749a1.62 1.62 0 0 0-1.374 1.834l.754 5.364a1.62 1.62 0 0 0 1.826 1.385l5.332-.75a1.62 1.62 0 0 0 1.373-1.834l-.754-5.364a1.62 1.62 0 0 0-1.826-1.384z" fill="url(#E)"/><path d="M75.952 117.409l-5.332.749a1.62 1.62 0 0 0-1.374 1.834l.754 5.364a1.62 1.62 0 0 0 1.826 1.384l5.332-.749a1.62 1.62 0 0 0 1.373-1.834l-.754-5.364a1.62 1.62 0 0 0-1.826-1.384z" fill="url(#E)"/><path d="M92.647 158.822l-5.332.749a1.62 1.62 0 0 0-1.374 1.834l.754 5.364a1.62 1.62 0 0 0 1.826 1.384l5.332-.749a1.62 1.62 0 0 0 1.373-1.834l-.754-5.364a1.62 1.62 0 0 0-1.826-1.384z" fill="url(#E)"/></g></g><defs><linearGradient id="A" x1="88.89" y1="35.923" x2="88.89" y2="275.923" href="#U"><stop stop-color="#db4c00"/><stop offset="1" stop-color="#660002"/></linearGradient><linearGradient id="B" x1="97.401" y1="24.629" x2="97.401" y2="264.629" href="#U"><stop stop-color="#ff8341"/><stop offset="1" stop-color="#fe3437"/></linearGradient><linearGradient id="C" x1="59.513" y1="213.446" x2="182.513" y2="213.446" href="#U"><stop stop-color="#ff8341"/><stop offset="1" stop-color="#fe3437"/></linearGradient><linearGradient id="D" x1="75.499" y1="210.299" x2="169.955" y2="197.024" href="#U"><stop stop-color="#ff8341"/><stop offset="1" stop-color="#fe3437"/></linearGradient><linearGradient id="E" x1="101.565" y1="48.17" x2="117.848" y2="164.032" href="#U"><stop stop-color="#ff8441"/><stop offset="1" stop-color="#fe3437"/></linearGradient><clipPath id="F"><path fill="#fff" d="M0 0h218v274H0z"/></clipPath><clipPath id="G"><path fill="#fff" transform="matrix(.990268 -.139173 .139173 .990268 .498703 26.0204)" d="M0 0h184v250H0z"/></clipPath><path id="H" d="M79.078 62.271l-5.332.749a1.62 1.62 0 0 0-1.374 1.834l.754 5.364a1.62 1.62 0 0 0 1.826 1.384l5.332-.749a1.62 1.62 0 0 0 1.373-1.834l-.754-5.364a1.62 1.62 0 0 0-1.826-1.384z"/><path id="I" d="M89.742 60.772l-5.332.749a1.62 1.62 0 0 0-1.373 1.834l.754 5.364a1.62 1.62 0 0 0 1.826 1.384l5.332-.749a1.62 1.62 0 0 0 1.373-1.834l-.754-5.364a1.62 1.62 0 0 0-1.826-1.384z"/><path id="J" d="M100.407 59.273l-5.333.749a1.62 1.62 0 0 0-1.373 1.834l.754 5.364a1.62 1.62 0 0 0 1.826 1.384l5.332-.749a1.62 1.62 0 0 0 1.373-1.834l-.754-5.364a1.62 1.62 0 0 0-1.825-1.384z"/><path id="K" d="M111.071 57.774l-5.332.749a1.62 1.62 0 0 0-1.374 1.834l.754 5.364a1.62 1.62 0 0 0 1.826 1.384l5.332-.749a1.62 1.62 0 0 0 1.374-1.834l-.754-5.364a1.62 1.62 0 0 0-1.826-1.384z"/><path id="L" d="M77.57 51.543l-5.332.749a1.62 1.62 0 0 0-1.373 1.834l.754 5.364a1.62 1.62 0 0 0 1.826 1.384l5.332-.749a1.62 1.62 0 0 0 1.374-1.834l-.754-5.364a1.62 1.62 0 0 0-1.826-1.384z"/><path id="M" d="M109.563 47.046l-5.332.749a1.62 1.62 0 0 0-1.373 1.834l.753 5.364a1.62 1.62 0 0 0 1.826 1.384l5.332-.749a1.62 1.62 0 0 0 1.374-1.834l-.754-5.364a1.62 1.62 0 0 0-1.826-1.384z"/><path id="N" d="M95.773 103.683l-5.332.75a1.62 1.62 0 0 0-1.374 1.834l.754 5.364a1.62 1.62 0 0 0 1.826 1.384l5.332-.749a1.62 1.62 0 0 0 1.373-1.834l-.754-5.364a1.62 1.62 0 0 0-1.826-1.385z"/><path id="O" d="M117.102 100.686l-5.332.749a1.62 1.62 0 0 0-1.374 1.834l.754 5.364a1.62 1.62 0 0 0 1.826 1.384l5.332-.749a1.62 1.62 0 0 0 1.373-1.834l-.753-5.364a1.62 1.62 0 0 0-1.826-1.384z"/><path id="P" d="M133.908 65.504l-5.333.749a1.62 1.62 0 0 0-1.373 1.834l.754 5.364a1.62 1.62 0 0 0 1.825 1.384l5.333-.749a1.62 1.62 0 0 0 1.373-1.834l-.754-5.364a1.62 1.62 0 0 0-1.825-1.384z"/><path id="Q" d="M121.735 56.275l-5.332.749a1.62 1.62 0 0 0-1.373 1.834l.754 5.364a1.62 1.62 0 0 0 1.825 1.384l5.333-.749a1.62 1.62 0 0 0 1.373-1.834l-.754-5.364a1.62 1.62 0 0 0-1.826-1.384z"/><path id="R" d="M85.109 105.182l-5.332.749a1.62 1.62 0 0 0-1.374 1.834l.754 5.364a1.62 1.62 0 0 0 1.826 1.385l5.332-.75a1.62 1.62 0 0 0 1.373-1.834l-.754-5.364a1.62 1.62 0 0 0-1.826-1.384z"/><path id="S" d="M129.274 109.915l-5.332.749a1.62 1.62 0 0 0-1.374 1.834l.754 5.364a1.62 1.62 0 0 0 1.826 1.385l5.332-.75a1.62 1.62 0 0 0 1.374-1.834l-.754-5.364a1.62 1.62 0 0 0-1.826-1.384z"/><path id="T" d="M145.969 151.328l-5.332.749c-.883.124-1.498.945-1.374 1.834l.754 5.364a1.62 1.62 0 0 0 1.826 1.384l5.332-.749a1.62 1.62 0 0 0 1.374-1.834l-.754-5.364a1.62 1.62 0 0 0-1.826-1.384z"/><linearGradient id="U" gradientUnits="userSpaceOnUse"/></defs></svg>
