<svg xmlns="http://www.w3.org/2000/svg" width="256" height="256" fill="none"><g clip-path="url(#B)"><path d="M0 128C0 57.308 57.308 0 128 0h0c70.692 0 128 57.308 128 128h0c0 70.692-57.308 128-128 128h0C57.308 256 0 198.692 0 128h0z" fill="url(#A)"/><g fill="#fff"><use href="#C"/><use href="#D"/><use href="#E"/><path d="M135.81 80.109h-5.385a1.62 1.62 0 0 0-1.615 1.625v5.417a1.62 1.62 0 0 0 1.615 1.625h5.385a1.62 1.62 0 0 0 1.615-1.625v-5.417a1.62 1.62 0 0 0-1.615-1.625zm-32.308-10.833h-5.384a1.62 1.62 0 0 0-1.615 1.625v5.417a1.62 1.62 0 0 0 1.615 1.625h5.384a1.62 1.62 0 0 0 1.615-1.625v-5.417a1.62 1.62 0 0 0-1.615-1.625zm10.769 0h-5.384a1.62 1.62 0 0 0-1.616 1.625v5.417a1.62 1.62 0 0 0 1.616 1.625h5.384a1.62 1.62 0 0 0 1.616-1.625v-5.417a1.62 1.62 0 0 0-1.616-1.625zm10.77 0h-5.385a1.62 1.62 0 0 0-1.615 1.625v5.417a1.62 1.62 0 0 0 1.615 1.625h5.385a1.62 1.62 0 0 0 1.615-1.625v-5.417a1.62 1.62 0 0 0-1.615-1.625z"/><path d="M135.81 69.276h-5.385a1.62 1.62 0 0 0-1.615 1.625v5.417a1.62 1.62 0 0 0 1.615 1.625h5.385a1.62 1.62 0 0 0 1.615-1.625v-5.417a1.62 1.62 0 0 0-1.615-1.625zm-32.308 21.667h-5.384a1.62 1.62 0 0 0-1.615 1.625v5.417a1.62 1.62 0 0 0 1.615 1.625h5.384a1.62 1.62 0 0 0 1.615-1.625v-5.417a1.62 1.62 0 0 0-1.615-1.625zm0 10.833h-5.384a1.62 1.62 0 0 0-1.615 1.625v5.417a1.62 1.62 0 0 0 1.615 1.625h5.384a1.62 1.62 0 0 0 1.615-1.625v-5.417a1.62 1.62 0 0 0-1.615-1.625z"/><use href="#F"/><use href="#G"/><path d="M135.81 123.443h-5.385a1.62 1.62 0 0 0-1.615 1.625v5.416a1.62 1.62 0 0 0 1.615 1.625h5.385a1.62 1.62 0 0 0 1.615-1.625v-5.416a1.62 1.62 0 0 0-1.615-1.625zm21.538-32.5h-5.384a1.62 1.62 0 0 0-1.616 1.625v5.417a1.62 1.62 0 0 0 1.616 1.625h5.384a1.62 1.62 0 0 0 1.616-1.625v-5.417a1.62 1.62 0 0 0-1.616-1.625zm0-10.834h-5.384a1.62 1.62 0 0 0-1.616 1.625v5.417a1.62 1.62 0 0 0 1.616 1.625h5.384a1.62 1.62 0 0 0 1.616-1.625v-5.417a1.62 1.62 0 0 0-1.616-1.625zm-10.769-10.833h-5.385a1.62 1.62 0 0 0-1.615 1.625v5.417a1.62 1.62 0 0 0 1.615 1.625h5.385a1.62 1.62 0 0 0 1.615-1.625v-5.417a1.62 1.62 0 0 0-1.615-1.625zm0 10.833h-5.385a1.62 1.62 0 0 0-1.615 1.625v5.417a1.62 1.62 0 0 0 1.615 1.625h5.385a1.62 1.62 0 0 0 1.615-1.625v-5.417a1.62 1.62 0 0 0-1.615-1.625zm10.769 43.334h-5.384a1.62 1.62 0 0 0-1.616 1.625v5.416a1.62 1.62 0 0 0 1.616 1.625h5.384a1.62 1.62 0 0 0 1.616-1.625v-5.416a1.62 1.62 0 0 0-1.616-1.625zm-10.769 0h-5.385a1.62 1.62 0 0 0-1.615 1.625v5.416a1.62 1.62 0 0 0 1.615 1.625h5.385a1.62 1.62 0 0 0 1.615-1.625v-5.416a1.62 1.62 0 0 0-1.615-1.625z"/><path d="M157.348 101.776h-5.384a1.62 1.62 0 0 0-1.616 1.625v5.417a1.62 1.62 0 0 0 1.616 1.625h5.384a1.62 1.62 0 0 0 1.616-1.625v-5.417a1.62 1.62 0 0 0-1.616-1.625zm0 10.833h-5.384a1.62 1.62 0 0 0-1.616 1.625v5.417a1.62 1.62 0 0 0 1.616 1.625h5.384a1.62 1.62 0 0 0 1.616-1.625v-5.417a1.62 1.62 0 0 0-1.616-1.625zm10.769 0h-5.384a1.62 1.62 0 0 0-1.616 1.625v5.417a1.62 1.62 0 0 0 1.616 1.625h5.384a1.62 1.62 0 0 0 1.616-1.625v-5.417a1.62 1.62 0 0 0-1.616-1.625z"/><path d="M168.117 101.776h-5.384a1.62 1.62 0 0 0-1.616 1.625v5.417a1.62 1.62 0 0 0 1.616 1.625h5.384a1.62 1.62 0 0 0 1.616-1.625v-5.417a1.62 1.62 0 0 0-1.616-1.625zm0-10.833h-5.384a1.62 1.62 0 0 0-1.616 1.625v5.417a1.62 1.62 0 0 0 1.616 1.625h5.384a1.62 1.62 0 0 0 1.616-1.625v-5.417a1.62 1.62 0 0 0-1.616-1.625zm-64.615 21.666h-5.384a1.62 1.62 0 0 0-1.615 1.625v5.417a1.62 1.62 0 0 0 1.615 1.625h5.384a1.62 1.62 0 0 0 1.615-1.625v-5.417a1.62 1.62 0 0 0-1.615-1.625z"/><use href="#H"/><path d="M103.502 134.276h-5.384a1.62 1.62 0 0 0-1.615 1.625v5.417a1.62 1.62 0 0 0 1.615 1.625h5.384a1.62 1.62 0 0 0 1.615-1.625v-5.417a1.62 1.62 0 0 0-1.615-1.625zm43.077 0h-5.385a1.62 1.62 0 0 0-1.615 1.625v5.417a1.62 1.62 0 0 0 1.615 1.625h5.385a1.62 1.62 0 0 0 1.615-1.625v-5.417a1.62 1.62 0 0 0-1.615-1.625zm-10.769 0h-5.385a1.62 1.62 0 0 0-1.615 1.625v5.417a1.62 1.62 0 0 0 1.615 1.625h5.385a1.62 1.62 0 0 0 1.615-1.625v-5.417a1.62 1.62 0 0 0-1.615-1.625zm10.769 10.833h-5.385a1.62 1.62 0 0 0-1.615 1.625v5.417a1.62 1.62 0 0 0 1.615 1.625h5.385a1.62 1.62 0 0 0 1.615-1.625v-5.417a1.62 1.62 0 0 0-1.615-1.625zm10.769 0h-5.384a1.62 1.62 0 0 0-1.616 1.625v5.417a1.62 1.62 0 0 0 1.616 1.625h5.384a1.62 1.62 0 0 0 1.616-1.625v-5.417a1.62 1.62 0 0 0-1.616-1.625zm-10.769 10.834h-5.385a1.62 1.62 0 0 0-1.615 1.625v5.416a1.62 1.62 0 0 0 1.615 1.625h5.385a1.62 1.62 0 0 0 1.615-1.625v-5.416a1.62 1.62 0 0 0-1.615-1.625zm10.769 0h-5.384a1.62 1.62 0 0 0-1.616 1.625v5.416a1.62 1.62 0 0 0 1.616 1.625h5.384a1.62 1.62 0 0 0 1.616-1.625v-5.416a1.62 1.62 0 0 0-1.616-1.625zm0 10.833h-5.384a1.62 1.62 0 0 0-1.616 1.625v5.417a1.62 1.62 0 0 0 1.616 1.625h5.384a1.62 1.62 0 0 0 1.616-1.625v-5.417a1.62 1.62 0 0 0-1.616-1.625zm10.769 0h-5.384a1.62 1.62 0 0 0-1.616 1.625v5.417a1.62 1.62 0 0 0 1.616 1.625h5.384a1.62 1.62 0 0 0 1.616-1.625v-5.417a1.62 1.62 0 0 0-1.616-1.625zm-10.769 10.833h-5.384a1.62 1.62 0 0 0-1.616 1.625v5.417a1.62 1.62 0 0 0 1.616 1.625h5.384a1.62 1.62 0 0 0 1.616-1.625v-5.417a1.62 1.62 0 0 0-1.616-1.625zm10.769 0h-5.384a1.62 1.62 0 0 0-1.616 1.625v5.417a1.62 1.62 0 0 0 1.616 1.625h5.384a1.62 1.62 0 0 0 1.616-1.625v-5.417a1.62 1.62 0 0 0-1.616-1.625zm-32.307-32.5h-5.385a1.62 1.62 0 0 0-1.615 1.625v5.417a1.62 1.62 0 0 0 1.615 1.625h5.385a1.62 1.62 0 0 0 1.615-1.625v-5.417a1.62 1.62 0 0 0-1.615-1.625zm-10.769-10.833h-5.385a1.62 1.62 0 0 0-1.615 1.625v5.417a1.62 1.62 0 0 0 1.615 1.625h5.385a1.62 1.62 0 0 0 1.615-1.625v-5.417a1.62 1.62 0 0 0-1.615-1.625zm-10.77 0h-5.384a1.62 1.62 0 0 0-1.616 1.625v5.417a1.62 1.62 0 0 0 1.616 1.625h5.384a1.62 1.62 0 0 0 1.616-1.625v-5.417a1.62 1.62 0 0 0-1.616-1.625zm-21.538 10.833h-5.385a1.62 1.62 0 0 0-1.615 1.625v5.417a1.62 1.62 0 0 0 1.615 1.625h5.385a1.62 1.62 0 0 0 1.615-1.625v-5.417a1.62 1.62 0 0 0-1.615-1.625zm10.769 0h-5.384a1.62 1.62 0 0 0-1.615 1.625v5.417a1.62 1.62 0 0 0 1.615 1.625h5.384a1.62 1.62 0 0 0 1.615-1.625v-5.417a1.62 1.62 0 0 0-1.615-1.625zm-10.769 10.834h-5.385a1.62 1.62 0 0 0-1.615 1.625v5.416a1.62 1.62 0 0 0 1.615 1.625h5.385a1.62 1.62 0 0 0 1.615-1.625v-5.416a1.62 1.62 0 0 0-1.615-1.625zm10.769 0h-5.384a1.62 1.62 0 0 0-1.615 1.625v5.416a1.62 1.62 0 0 0 1.615 1.625h5.384a1.62 1.62 0 0 0 1.615-1.625v-5.416a1.62 1.62 0 0 0-1.615-1.625zm-10.769 10.833h-5.385a1.62 1.62 0 0 0-1.615 1.625v5.417a1.62 1.62 0 0 0 1.615 1.625h5.385a1.62 1.62 0 0 0 1.615-1.625v-5.417a1.62 1.62 0 0 0-1.615-1.625zm10.769 0h-5.384a1.62 1.62 0 0 0-1.615 1.625v5.417a1.62 1.62 0 0 0 1.615 1.625h5.384a1.62 1.62 0 0 0 1.615-1.625v-5.417a1.62 1.62 0 0 0-1.615-1.625zm-10.769 10.833h-5.385a1.62 1.62 0 0 0-1.615 1.625v5.417a1.62 1.62 0 0 0 1.615 1.625h5.385a1.62 1.62 0 0 0 1.615-1.625v-5.417a1.62 1.62 0 0 0-1.615-1.625zm0-75.833h-5.385a1.62 1.62 0 0 0-1.615 1.625v5.417a1.62 1.62 0 0 0 1.615 1.625h5.385a1.62 1.62 0 0 0 1.615-1.625v-5.417a1.62 1.62 0 0 0-1.615-1.625zm0 10.833h-5.385a1.62 1.62 0 0 0-1.615 1.625v5.417a1.62 1.62 0 0 0 1.615 1.625h5.385a1.62 1.62 0 0 0 1.615-1.625v-5.417a1.62 1.62 0 0 0-1.615-1.625zm0-32.5h-5.385a1.62 1.62 0 0 0-1.615 1.625v5.417a1.62 1.62 0 0 0 1.615 1.625h5.385a1.62 1.62 0 0 0 1.615-1.625v-5.417a1.62 1.62 0 0 0-1.615-1.625zm0-10.833h-5.385a1.62 1.62 0 0 0-1.615 1.625v5.417a1.62 1.62 0 0 0 1.615 1.625h5.385a1.62 1.62 0 0 0 1.615-1.625v-5.417a1.62 1.62 0 0 0-1.615-1.625zm0 21.667h-5.385a1.62 1.62 0 0 0-1.615 1.625v5.417a1.62 1.62 0 0 0 1.615 1.625h5.385a1.62 1.62 0 0 0 1.615-1.625v-5.417a1.62 1.62 0 0 0-1.615-1.625zm0 32.5h-5.385a1.62 1.62 0 0 0-1.615 1.625v5.416a1.62 1.62 0 0 0 1.615 1.625h5.385a1.62 1.62 0 0 0 1.615-1.625v-5.416a1.62 1.62 0 0 0-1.615-1.625zm0 10.833h-5.385a1.62 1.62 0 0 0-1.615 1.625v5.417a1.62 1.62 0 0 0 1.615 1.625h5.385a1.62 1.62 0 0 0 1.615-1.625v-5.417a1.62 1.62 0 0 0-1.615-1.625zm10.769 43.333h-5.384a1.62 1.62 0 0 0-1.615 1.625v5.417a1.62 1.62 0 0 0 1.615 1.625h5.384a1.62 1.62 0 0 0 1.615-1.625v-5.417a1.62 1.62 0 0 0-1.615-1.625z"/></g></g><defs><linearGradient id="A" x1="128" y1="0" x2="128" y2="256" gradientUnits="userSpaceOnUse"><stop stop-color="#ff8341"/><stop offset="1" stop-color="#fe3437"/></linearGradient><clipPath id="B"><path fill="#fff" d="M0 0h256v256H0z"/></clipPath><path id="C" d="M103.502 80.109h-5.384a1.62 1.62 0 0 0-1.615 1.625v5.417a1.62 1.62 0 0 0 1.615 1.625h5.384a1.62 1.62 0 0 0 1.615-1.625v-5.417a1.62 1.62 0 0 0-1.615-1.625z"/><path id="D" d="M114.271 80.109h-5.384a1.62 1.62 0 0 0-1.616 1.625v5.417a1.62 1.62 0 0 0 1.616 1.625h5.384a1.62 1.62 0 0 0 1.616-1.625v-5.417a1.62 1.62 0 0 0-1.616-1.625z"/><path id="E" d="M125.041 80.109h-5.385a1.62 1.62 0 0 0-1.615 1.625v5.417a1.62 1.62 0 0 0 1.615 1.625h5.385a1.62 1.62 0 0 0 1.615-1.625v-5.417a1.62 1.62 0 0 0-1.615-1.625z"/><path id="F" d="M114.271 123.443h-5.384a1.62 1.62 0 0 0-1.616 1.625v5.416a1.62 1.62 0 0 0 1.616 1.625h5.384a1.62 1.62 0 0 0 1.616-1.625v-5.416a1.62 1.62 0 0 0-1.616-1.625z"/><path id="G" d="M125.041 123.443h-5.385a1.62 1.62 0 0 0-1.615 1.625v5.416a1.62 1.62 0 0 0 1.615 1.625h5.385a1.62 1.62 0 0 0 1.615-1.625v-5.416a1.62 1.62 0 0 0-1.615-1.625z"/><path id="H" d="M103.502 123.443h-5.384a1.62 1.62 0 0 0-1.615 1.625v5.416a1.62 1.62 0 0 0 1.615 1.625h5.384a1.62 1.62 0 0 0 1.615-1.625v-5.416a1.62 1.62 0 0 0-1.615-1.625z"/></defs></svg>
